<svg id="Touch_ID" data-name="Touch ID" xmlns="http://www.w3.org/2000/svg" viewBox="0 0 576 468"><defs><style>.cls-1{fill:none;stroke:#000;stroke-linecap:round;stroke-miterlimit:10;stroke-width:8px;}</style></defs><title>logo</title><g id="Large"><path class="cls-1" d="M187.8,190.07a96.65,96.65,0,0,0,1,57.46"/><path class="cls-1" d="M278.85,121.16a96,96,0,0,0-85.28,54"/><path class="cls-1" d="M375.93,214.42A96.08,96.08,0,0,0,294.8,122.3"/><path class="cls-1" d="M274.26,299.15c-1.91,5.3-3.84,9.81-5.49,13.35"/><path class="cls-1" d="M279.93,217.16a151.12,151.12,0,0,1,1.6,54.17c-.71,4.35-1.59,8.52-2.58,12.46"/><path class="cls-1" d="M298.28,265.87q-.31,2.73-.75,5.46a207.47,207.47,0,0,1-11.46,41.83"/><path class="cls-1" d="M252.27,309.09A135.85,135.85,0,0,0,265,271.42c4-23,.53-44-.84-51.43a15.6,15.6,0,0,1-.25-2.83,16,16,0,0,1,31.58-3.64,177.85,177.85,0,0,1,3.67,36.39"/><path class="cls-1" d="M362.76,245.91c.11,6.37,0,13.25-.37,20.44"/><path class="cls-1" d="M248.54,143.55a80.14,80.14,0,0,1,110.72,62.61A235.73,235.73,0,0,1,362,229.9"/><path class="cls-1" d="M199.63,269.79a55.62,55.62,0,0,0,2.42-7.75c2.31-9.93.38-24-1-31.55a80.21,80.21,0,0,1,33.59-79.28"/><path class="cls-1" d="M295.85,155.16a64,64,0,0,0-79.18,71.76c1.52,8.35,3.5,22.55.86,36.91a78.23,78.23,0,0,1-6.69,20"/><path class="cls-1" d="M343.73,288.85c.57-3.33,1.09-6.76,1.54-10.28,4.66-36.94-2.07-71-2.07-71A64,64,0,0,0,310.66,161"/><path class="cls-1" d="M325.45,201.89a49.58,49.58,0,0,1,1.5,5.6c1.87,9.77,5.87,34,3.24,60.83a221.63,221.63,0,0,1-6.12,34.09"/><path class="cls-1" d="M234.26,259.18a107.14,107.14,0,0,0-1.42-32.64,48,48,0,0,1,85-38.84"/><path class="cls-1" d="M223.33,294.79a106.94,106.94,0,0,0,7.9-19.87"/><path class="cls-1" d="M268.91,187.11a32,32,0,0,1,42.36,23.46,194.57,194.57,0,0,1,2.88,58.05,197.8,197.8,0,0,1-9.28,41.32"/><path class="cls-1" d="M237.37,303.26c4.75-9.08,9.68-21,11.75-34.1,3.13-19.79.78-37.51-.69-46.25a30.23,30.23,0,0,1-.5-5.75,31.86,31.86,0,0,1,7.93-21.09"/></g></svg>