<?xml version="1.0" encoding="utf-8"?>
<!-- Generator: Adobe Illustrator 23.0.1, SVG Export Plug-In . SVG Version: 6.00 Build 0)  -->
<svg version="1.1" id="Touch_ID" xmlns="http://www.w3.org/2000/svg" xmlns:xlink="http://www.w3.org/1999/xlink" x="0px" y="0px"
	 viewBox="0 0 576 468" style="enable-background:new 0 0 576 468;" xml:space="preserve">
<style type="text/css">
	.st0{fill:none;stroke:#929292;stroke-width:8;stroke-linecap:round;stroke-miterlimit:10;}
</style>
<g id="Large">
	<g>
		<path class="st0" d="M187.8,190.07c-2.52,8.59-3.88,17.68-3.88,27.09c0,10.61,1.72,20.82,4.9,30.37"/>
		<path class="st0" d="M278.85,121.16c-37.5,0.41-69.85,22.34-85.28,54.02"/>
		<path class="st0" d="M375.93,214.42c-1.31-46.71-36.05-85.1-81.12-92.11"/>
		<path class="st0" d="M274.26,299.15c-1.91,5.3-3.84,9.81-5.49,13.35"/>
		<path class="st0" d="M279.93,217.16c0,0,6.27,25.34,1.6,54.17c-0.7,4.35-1.59,8.52-2.58,12.46"/>
		<path class="st0" d="M298.28,265.87c-0.21,1.82-0.46,3.64-0.75,5.46c-2.91,17.96-8.02,33.13-11.45,41.83"/>
		<path class="st0" d="M252.27,309.09c4.52-8.88,10.05-22.12,12.75-37.67c3.98-22.99,0.53-43.98-0.84-51.43
			c-0.16-0.92-0.25-1.86-0.25-2.83c0-8.84,7.16-16,16-16c7.59,0,13.94,5.28,15.58,12.36c0,0,3.73,16.18,3.67,36.39"/>
		<path class="st0" d="M362.76,245.91c0.12,6.37,0.04,13.25-0.36,20.44"/>
		<path class="st0" d="M248.54,143.55c9.64-4.11,20.25-6.39,31.38-6.39c40.39,0,73.9,30.11,79.34,69c0,0,1.73,9.29,2.77,23.74"/>
		<path class="st0" d="M199.63,269.79c0.96-2.44,1.79-5.04,2.42-7.75c2.31-9.93,0.38-23.94-1.02-31.54
			c-0.73-4.34-1.11-8.79-1.11-13.33c0-27.37,13.74-51.52,34.7-65.95"/>
		<path class="st0" d="M295.85,155.16c-5.09-1.3-10.43-2-15.92-2c-35.35,0-64,28.65-64,64c0,3.32,0.25,6.57,0.74,9.76
			c1.52,8.36,3.5,22.55,0.86,36.91c-1.39,7.57-3.91,14.34-6.69,20.03"/>
		<path class="st0" d="M343.73,288.85c0.57-3.32,1.09-6.76,1.53-10.28c4.66-36.94-2.06-71.05-2.06-71.05
			c-3.04-20.08-15.4-37.11-32.54-46.51"/>
		<path class="st0" d="M325.45,201.89c0.61,1.82,1.11,3.68,1.5,5.59c1.87,9.77,5.87,33.99,3.24,60.84
			c-1.26,12.89-3.63,24.53-6.13,34.09"/>
		<path class="st0" d="M234.26,259.18c1.98-18.27-1.41-32.64-1.41-32.64c-0.6-3.04-0.92-6.17-0.92-9.38c0-26.51,21.49-48,48-48
			c15.4,0,29.11,7.25,37.89,18.54"/>
		<path class="st0" d="M223.33,294.79c2.89-5.61,5.78-12.34,7.9-19.86"/>
		<path class="st0" d="M268.91,187.11c3.43-1.26,7.14-1.95,11.01-1.95c15.45,0,28.34,10.85,31.34,25.41
			c1.71,8.19,5.79,31.74,2.88,58.05c-1.85,16.7-5.83,31.16-9.28,41.32"/>
		<path class="st0" d="M237.37,303.26c4.76-9.08,9.68-20.98,11.76-34.1c3.13-19.79,0.78-37.51-0.7-46.25
			c-0.36-1.91-0.5-3.73-0.5-5.75c0-8.08,3-15.46,7.93-21.09"/>
	</g>
</g>
</svg>
